<?xml version="1.0" encoding="UTF-8"?>
<svg id="Layer_1" xmlns="http://www.w3.org/2000/svg" version="1.1" viewBox="0 0 596.2 416.2">
  <!-- Generator: Adobe Illustrator 29.1.0, SVG Export Plug-In . SVG Version: 2.1.0 Build 142)  -->
  <path d="M383.9,201.2l-76.3-76.3c-.3-.3-.6-.6-1-.9-.2-.1-.3-.2-.5-.4-.2-.1-.4-.3-.6-.4-.2-.1-.4-.2-.6-.4-.2-.1-.4-.2-.5-.3-.2-.1-.4-.2-.6-.3-.2,0-.4-.2-.6-.3-.2,0-.4-.2-.6-.2-.2,0-.4-.2-.6-.2-.2,0-.4-.1-.6-.2-.2,0-.4-.1-.6-.2-.2,0-.5,0-.7-.1-.2,0-.4,0-.6,0-.9,0-1.8,0-2.7,0-.2,0-.4,0-.6,0-.2,0-.5,0-.7.1-.2,0-.4.1-.6.2-.2,0-.4,0-.6.2-.2,0-.4.1-.6.2-.2,0-.4.1-.6.2-.2,0-.4.2-.6.3-.2,0-.4.2-.6.3-.2,0-.4.2-.5.3-.2.1-.4.2-.6.4-.2.1-.4.3-.6.4-.2.1-.3.2-.5.4-.3.3-.7.6-1,.9l-76.3,76.3c-5.3,5.3-5.3,13.8,0,19.1s13.8,5.3,19.1,0l53.2-53.2v148.7c0,7.5,6,13.5,13.5,13.5s13.5-6,13.5-13.5v-148.7l53.2,53.2c2.6,2.6,6.1,4,9.5,4s6.9-1.3,9.5-4c5.3-5.3,5.3-13.8,0-19.1Z"/>
  <path d="M477.8,416.2H133.6C59.9,416.2,0,356.2,0,282.6s36.7-108.1,90.3-126.4C94.1,69.4,165.9,0,253.6,0s57.4,7.7,82.3,22.2c20.3,11.8,37.8,27.9,51.3,47,14.2-7,29.9-10.7,46-10.7,57.3,0,103.8,46.6,103.8,103.8s-1.5,20.5-4.5,30.2c16.9,8.8,31.4,21.5,42.4,37.3,14,19.9,21.3,43.4,21.3,67.8,0,65.3-53.1,118.5-118.5,118.5ZM253.6,27c-75.2,0-136.4,61.2-136.4,136.4s0,1.7,0,2.6l.2,10.7-10.4,2.7c-47.1,12.1-80.1,54.5-80.1,103.2s47.8,106.6,106.6,106.6h344.2c50.4,0,91.5-41,91.5-91.5s-5.7-37-16.5-52.3c-10.5-15.1-25.1-26.5-42.2-33.1l-13.4-5.1,5.9-13c4.5-10,6.8-20.7,6.8-31.7,0-42.4-34.5-76.8-76.8-76.8s-30.1,4.5-42.8,13l-11.9,8-7.3-12.3c-11.9-20.1-28.8-36.9-48.9-48.7-20.7-12.1-44.5-18.5-68.6-18.5Z"/>
</svg>